<svg width="17" height="17" viewBox="0 0 17 17" fill="none" xmlns="http://www.w3.org/2000/svg">
<path d="M16.8937 7.9609C16.8262 7.78715 16.7251 7.62841 16.5961 7.49379L9.50979 0.416287C9.37764 0.284308 9.22077 0.179616 9.04811 0.10819C8.87546 0.0367632 8.69041 0 8.50353 0C8.12612 0 7.76416 0.149743 7.49728 0.416287C7.36514 0.548266 7.26032 0.704948 7.1888 0.877387C7.11729 1.04983 7.08048 1.23465 7.08048 1.42129C7.08048 1.79824 7.23041 2.15975 7.49728 2.4263L12.1742 7.08329H1.41726C1.04138 7.08329 0.680892 7.23243 0.415105 7.49788C0.149318 7.76334 0 8.12338 0 8.49879C0 8.87421 0.149318 9.23424 0.415105 9.4997C0.680892 9.76516 1.04138 9.91429 1.41726 9.91429H12.1742L7.49728 14.5713C7.36445 14.7029 7.25901 14.8594 7.18706 15.0319C7.11511 15.2044 7.07806 15.3894 7.07806 15.5763C7.07806 15.7632 7.11511 15.9482 7.18706 16.1207C7.25901 16.2932 7.36445 16.4497 7.49728 16.5813C7.62903 16.714 7.78578 16.8193 7.95849 16.8911C8.1312 16.963 8.31644 17 8.50353 17C8.69063 17 8.87587 16.963 9.04858 16.8911C9.22128 16.8193 9.37803 16.714 9.50979 16.5813L16.5961 9.5038C16.7251 9.36918 16.8262 9.21044 16.8937 9.03668C17.0354 8.69206 17.0354 8.30552 16.8937 7.9609Z" fill="#D9D9D9"/>
</svg>
