<svg width="12" height="17" viewBox="0 0 12 17" fill="none" xmlns="http://www.w3.org/2000/svg">
<path d="M11.9931 4.95832C11.9931 4.30718 11.8725 3.66242 11.6381 3.06085C11.4037 2.45928 11.0602 1.91268 10.6271 1.45226C10.194 0.991836 9.67982 0.626609 9.11396 0.37743C8.5481 0.128251 7.94161 0 7.32913 0H1.33257C0.97915 0 0.640206 0.149255 0.390301 0.414931C0.140395 0.680607 0 1.04094 0 1.41666V15.5833C0 15.959 0.140395 16.3193 0.390301 16.585C0.640206 16.8507 0.97915 17 1.33257 17H7.32913C8.25749 17.0042 9.16582 16.713 9.93719 16.1639C10.7086 15.6147 11.3077 14.8326 11.6574 13.9183C12.0071 13.0041 12.0915 11.9995 11.8996 11.0338C11.7077 10.0682 11.2483 9.18571 10.5806 8.49998C11.0261 8.03944 11.3805 7.48891 11.6231 6.88071C11.8657 6.27252 11.9915 5.61892 11.9931 4.95832ZM7.32913 14.1666H2.66514V9.91664H7.32913C7.85926 9.91664 8.36767 10.1405 8.74253 10.539C9.11739 10.9375 9.32798 11.478 9.32798 12.0416C9.32798 12.6052 9.11739 13.1457 8.74253 13.5442C8.36767 13.9427 7.85926 14.1666 7.32913 14.1666ZM7.32913 7.08331H2.66514V2.83333H7.32913C7.85926 2.83333 8.36767 3.05721 8.74253 3.45572C9.11739 3.85424 9.32798 4.39474 9.32798 4.95832C9.32798 5.5219 9.11739 6.0624 8.74253 6.46092C8.36767 6.85943 7.85926 7.08331 7.32913 7.08331Z" fill="#D9D9D9"/>
</svg>
