<svg width="27" height="28" viewBox="0 0 27 28" fill="none" xmlns="http://www.w3.org/2000/svg">
<path d="M13.5 0C10.83 0 8.21987 0.821085 5.99981 2.35942C3.77974 3.89776 2.04942 6.08426 1.02763 8.64243C0.00584933 11.2006 -0.261496 14.0155 0.259405 16.7313C0.780305 19.447 2.06606 21.9416 3.95406 23.8995C5.84207 25.8574 8.24754 27.1908 10.8663 27.731C13.485 28.2712 16.1994 27.9939 18.6662 26.9343C21.133 25.8747 23.2414 24.0803 24.7248 21.778C26.2082 19.4757 27 16.7689 27 14C27 12.1615 26.6508 10.341 25.9724 8.64243C25.2939 6.94387 24.2995 5.40052 23.0459 4.1005C21.7924 2.80048 20.3041 1.76925 18.6662 1.06569C17.0283 0.362121 15.2728 0 13.5 0ZM12.15 25.102C9.5555 24.7437 7.17474 23.4205 5.45043 21.3784C3.72611 19.3363 2.77558 16.7143 2.77558 14C2.77558 11.2856 3.72611 8.66366 5.45043 6.62158C7.17474 4.57949 9.5555 3.25629 12.15 2.898V25.102ZM14.85 25.102V2.898C17.4445 3.25629 19.8253 4.57949 21.5496 6.62158C23.2739 8.66366 24.2244 11.2856 24.2244 14C24.2244 16.7143 23.2739 19.3363 21.5496 21.3784C19.8253 23.4205 17.4445 24.7437 14.85 25.102Z" fill="#D9D9D9"/>
</svg>
