<svg width="19" height="27" viewBox="0 0 19 27" fill="none" xmlns="http://www.w3.org/2000/svg">
<path d="M15.5457 2.23509C14.4535 1.30681 13.1744 0.642217 11.802 0.289783C10.4295 -0.0626511 8.9982 -0.0940306 7.6125 0.197934C5.7674 0.583056 4.0746 1.52586 2.74887 2.90671C1.42313 4.28757 0.524226 6.04424 0.166196 7.95384C-0.0952599 9.38564 -0.0477493 10.8594 0.305339 12.2701C0.658426 13.6807 1.30839 14.9935 2.20888 16.1147C3.04458 17.0892 3.5236 18.3354 3.56275 19.6368V23.3184C3.56275 24.2948 3.93812 25.2312 4.60628 25.9217C5.27444 26.6121 6.18066 27 7.12558 27H11.876C12.8209 27 13.7271 26.6121 14.3953 25.9217C15.0635 25.2312 15.4388 24.2948 15.4388 23.3184V19.87C15.4787 18.4331 15.9895 17.0528 16.8877 15.9552C18.4614 13.9435 19.2033 11.3714 18.952 8.7977C18.7007 6.22402 17.4766 3.85682 15.5457 2.21054V2.23509ZM13.0636 23.3184C13.0636 23.6439 12.9385 23.956 12.7158 24.1862C12.4931 24.4163 12.191 24.5456 11.876 24.5456H7.12558C6.8106 24.5456 6.50853 24.4163 6.28581 24.1862C6.06309 23.956 5.93797 23.6439 5.93797 23.3184V22.0912H13.0636V23.3184ZM15.0469 14.4335C13.8528 15.897 13.1561 17.7249 13.0636 19.6368H10.6884V15.9552C10.6884 15.6297 10.5633 15.3176 10.3406 15.0874C10.1178 14.8573 9.81577 14.728 9.50079 14.728C9.18582 14.728 8.88375 14.8573 8.66103 15.0874C8.43831 15.3176 8.31319 15.6297 8.31319 15.9552V19.6368H5.93797C5.90663 17.7568 5.23365 15.9488 4.0378 14.5316C3.2488 13.5548 2.71824 12.3833 2.49784 11.1315C2.27744 9.87966 2.37473 8.59017 2.78022 7.38875C3.18572 6.18734 3.88557 5.11501 4.81155 4.27632C5.73753 3.43763 6.85802 2.8612 8.06379 2.60325C9.10004 2.38277 10.1708 2.40351 11.1983 2.66396C12.2258 2.9244 13.1844 3.41802 14.0043 4.10896C14.8242 4.79991 15.4849 5.67085 15.9384 6.65855C16.392 7.64626 16.627 8.72593 16.6264 9.81919C16.6352 11.5003 16.0767 13.132 15.0469 14.4335Z" fill="#26D8E4"/>
</svg>
